<?xml version="1.0" encoding="UTF-8"?>
<!DOCTYPE svg PUBLIC "-//W3C//DTD SVG 1.1//EN" "http://www.w3.org/Graphics/SVG/1.1/DTD/svg11.dtd">
<svg xmlns="http://www.w3.org/2000/svg" version="1.1" width="570px" height="1224px" style="shape-rendering:geometricPrecision; text-rendering:geometricPrecision; image-rendering:optimizeQuality; fill-rule:evenodd; clip-rule:evenodd" xmlns:xlink="http://www.w3.org/1999/xlink">
<g><path style="opacity:0.899" fill="#000000" d="M 500.5,20.5 C 507.648,22.1434 512.482,26.4767 515,33.5C 519.256,45.2882 521.089,57.4549 520.5,70C 520.494,77.8685 519.994,85.7018 519,93.5C 515.16,114.526 511.16,135.526 507,156.5C 505.342,166.434 504.342,176.434 504,186.5C 503.853,191.475 501.686,195.141 497.5,197.5C 495.558,193.399 494.391,189.066 494,184.5C 493.333,176.5 493.333,168.5 494,160.5C 497.382,144.019 501.382,127.686 506,111.5C 511.988,80.6686 510.155,50.3353 500.5,20.5 Z"/></g>
<g><path style="opacity:0.894" fill="#000000" d="M 474.5,50.5 C 478.683,49.8456 481.516,51.5123 483,55.5C 484.901,68.4931 484.901,81.4931 483,94.5C 478.697,113.045 475.03,131.711 472,150.5C 469.952,175.334 473.452,199.334 482.5,222.5C 481.829,223.946 480.662,224.612 479,224.5C 473.85,223.354 470.184,220.354 468,215.5C 460.526,194.035 458.526,172.035 462,149.5C 465.883,126.867 469.55,104.2 473,81.5C 473.191,71.0903 473.691,60.7569 474.5,50.5 Z"/></g>
<g><path style="opacity:0.024" fill="#6c6e72" d="M 508.5,264.5 C 502.108,264.751 495.775,264.418 489.5,263.5C 496.009,260.584 502.342,260.918 508.5,264.5 Z"/></g>
<g><path style="opacity:0.954" fill="#020203" d="M 489.5,263.5 C 495.775,264.418 502.108,264.751 508.5,264.5C 515.266,264.798 520.766,267.464 525,272.5C 526.798,277.678 527.798,283.011 528,288.5C 528.483,297.839 528.983,307.172 529.5,316.5C 529.586,320.857 529.92,325.19 530.5,329.5C 530.437,334.203 530.771,338.87 531.5,343.5C 540.23,345.721 546.397,351.055 550,359.5C 556.127,374.494 557.46,389.828 554,405.5C 552.167,410 549,413.167 544.5,415C 539.838,415.943 535.172,416.776 530.5,417.5C 524.765,445.182 521.598,473.182 521,501.5C 520.667,541.833 520.333,582.167 520,622.5C 519.409,645.543 518.076,668.543 516,691.5C 499.439,853.879 482.439,1016.21 465,1178.5C 464.562,1182.57 462.395,1185.07 458.5,1186C 359.992,1202.39 260.992,1206.06 161.5,1197C 150.118,1196.06 138.785,1194.73 127.5,1193C 120.107,1191.7 113.107,1189.53 106.5,1186.5C 104.337,1184.92 102.004,1183.58 99.5,1182.5C 91.1801,1177.53 86.6801,1170.2 86,1160.5C 68.5227,913.818 50.8561,667.152 33,420.5C 32.4837,417.966 31.317,415.8 29.5,414C 23.2502,414.078 18.4168,411.578 15,406.5C 8.65135,387.976 9.98468,369.976 19,352.5C 22.5599,347.471 27.3932,344.638 33.5,344C 36.7284,342.437 38.8951,339.937 40,336.5C 40.8921,330.814 41.8921,325.147 43,319.5C 44.4101,314.16 47.5768,310.327 52.5,308C 56.4204,306.687 60.4204,305.687 64.5,305C 85.5553,302.72 106.222,300.22 126.5,297.5C 149.719,295.55 172.719,292.884 195.5,289.5C 208.476,288.421 221.476,287.087 234.5,285.5C 239.1,285.72 243.433,285.054 247.5,283.5C 302.13,277.412 356.797,271.578 411.5,266C 437.462,264.016 463.462,263.183 489.5,263.5 Z M 402.5,415.5 C 421.322,416.744 439.989,416.744 458.5,415.5C 477.833,415.5 497.167,415.5 516.5,415.5C 514.72,465.309 511.053,514.975 505.5,564.5C 437.651,570.992 369.651,574.492 301.5,575C 304.184,570.948 305.684,566.448 306,561.5C 311.46,557.578 313.96,552.245 313.5,545.5C 311.379,534.58 307.545,524.246 302,514.5C 301.333,511.5 301.333,508.5 302,505.5C 312.549,493.826 315.216,480.493 310,465.5C 307.715,460.59 305.215,455.923 302.5,451.5C 302.667,450.5 302.833,449.5 303,448.5C 311.732,439.136 315.565,428.136 314.5,415.5C 343.833,415.5 373.167,415.5 402.5,415.5 Z M 510.5,574.5 C 511.825,578.276 512.491,582.443 512.5,587C 511.848,606.864 510.682,626.697 509,646.5C 501.162,731.88 492.995,817.214 484.5,902.5C 430.984,908.757 377.317,912.09 323.5,912.5C 326.017,893.7 329.351,875.033 333.5,856.5C 330.922,836.186 326.756,816.186 321,796.5C 320.333,790.833 320.333,785.167 321,779.5C 324.629,767.4 325.962,755.067 325,742.5C 322.409,731.393 319.409,720.393 316,709.5C 315.604,697.266 316.437,685.099 318.5,673C 318.026,666.039 316.859,659.206 315,652.5C 311.897,647.294 309.064,641.96 306.5,636.5C 309.856,623.366 311.356,610.033 311,596.5C 310.367,592.791 309.2,589.291 307.5,586C 375.472,584.8 443.138,580.967 510.5,574.5 Z M 474.5,914.5 C 475.5,914.5 476.5,914.5 477.5,914.5C 471.744,990.167 465.91,1065.83 460,1141.5C 459.514,1149.99 455.014,1154.49 446.5,1155C 395.194,1163.82 343.527,1168.48 291.5,1169C 293.062,1162.25 294.395,1155.42 295.5,1148.5C 295.406,1146.08 294.906,1143.74 294,1141.5C 291.946,1138.73 290.446,1135.73 289.5,1132.5C 291.66,1126.18 293.826,1119.84 296,1113.5C 296.148,1106.74 295.315,1100.08 293.5,1093.5C 295.793,1085.24 297.793,1076.91 299.5,1068.5C 299.333,1066.5 299.167,1064.5 299,1062.5C 296.545,1057.26 294.378,1051.93 292.5,1046.5C 295.78,1038.61 299.613,1030.94 304,1023.5C 307.565,1015.04 310.565,1006.37 313,997.5C 313.384,987.307 310.884,977.807 305.5,969C 311.395,959.957 313.062,950.123 310.5,939.5C 311.373,934.546 313.04,929.879 315.5,925.5C 349.505,923.873 383.505,922.039 417.5,920C 436.708,918.762 455.708,916.929 474.5,914.5 Z M 453.5,1164.5 C 459.067,1163.75 460.9,1166.09 459,1171.5C 457.332,1175.17 454.499,1177.33 450.5,1178C 398.469,1186.02 346.136,1190.52 293.5,1191.5C 293.5,1187.83 293.5,1184.17 293.5,1180.5C 347.427,1179.64 400.76,1174.31 453.5,1164.5 Z"/></g>
<g><path style="opacity:1" fill="#6b6c71" d="M 410.5,276.5 C 420.839,276.334 431.172,276.5 441.5,277C 455.234,279.428 469.068,280.928 483,281.5C 492.338,281.2 501.505,280.033 510.5,278C 514.651,281.128 517.151,285.295 518,290.5C 518.578,304.349 519.411,318.182 520.5,332C 521.724,341.781 517.391,347.114 507.5,348C 355.128,357.096 202.795,356.596 50.5,346.5C 48.3622,333.985 53.6956,326.818 66.5,325C 177.755,322.971 288.422,313.971 398.5,298C 403.223,296.804 407.557,294.804 411.5,292C 413.782,289.603 415.116,286.769 415.5,283.5C 299.335,303.208 182.335,313.708 64.5,315C 180.071,302.918 295.404,290.085 410.5,276.5 Z"/></g>
<g><path style="opacity:0.522" fill="#46474a" d="M 247.5,283.5 C 243.433,285.054 239.1,285.72 234.5,285.5C 238.591,284.105 242.924,283.438 247.5,283.5 Z"/></g>
<g><path style="opacity:0.098" fill="#696a6f" d="M 195.5,289.5 C 172.719,292.884 149.719,295.55 126.5,297.5C 149.201,293.533 172.201,290.866 195.5,289.5 Z"/></g>
<g><path style="opacity:0.015" fill="#6b6c71" d="M 529.5,316.5 C 531.409,320.754 531.742,325.088 530.5,329.5C 529.92,325.19 529.586,320.857 529.5,316.5 Z"/></g>
<g><path style="opacity:1" fill="#6b6c71" d="M 38.5,355.5 C 93.783,359.131 149.116,361.964 204.5,364C 307.628,366.569 410.628,364.069 513.5,356.5C 521.302,355.784 528.635,357.284 535.5,361C 542.733,366.967 544.233,374.133 540,382.5C 537.958,384.604 535.458,385.771 532.5,386C 365.499,389.299 198.499,389.299 31.5,386C 23.945,383.034 21.1117,377.534 23,369.5C 25.8442,362.151 31.0108,357.484 38.5,355.5 Z"/></g>
<g><path style="opacity:1" fill="#6b6c71" d="M 26.5,397.5 C 197.834,397.333 369.167,397.5 540.5,398C 543.362,398.93 545.695,400.597 547.5,403C 372.171,406.145 196.837,406.312 21.5,403.5C 21.3505,402.448 21.5172,401.448 22,400.5C 23.6516,399.601 25.1516,398.601 26.5,397.5 Z"/></g>
<g><path style="opacity:1" fill="#fefefe" d="M 48.5,414.5 C 134.501,414.333 220.501,414.5 306.5,415C 309.096,426.715 305.93,436.882 297,445.5C 295.595,449.072 295.262,452.739 296,456.5C 305.07,465.328 308.07,475.995 305,488.5C 302.252,493.666 299.252,498.666 296,503.5C 295.174,508.589 295.508,513.589 297,518.5C 300,525.167 303,531.833 306,538.5C 308.479,547.214 306.145,554.214 299,559.5C 299.737,566.186 297.57,571.686 292.5,576C 216.721,576.561 141.055,573.894 65.5,568C 59.7904,565.433 56.9571,560.933 57,554.5C 53.4043,507.872 50.5709,461.206 48.5,414.5 Z"/></g>
<g><path style="opacity:0.038" fill="#5c5d61" d="M 402.5,415.5 C 421.039,414.187 439.706,414.187 458.5,415.5C 439.989,416.744 421.322,416.744 402.5,415.5 Z"/></g>
<g><path style="opacity:1" fill="#0095d6" d="M 54.5,577.5 C 136.405,582.889 218.405,585.889 300.5,586.5C 303.93,591.783 305.263,597.616 304.5,604C 303.768,614.564 302.434,625.064 300.5,635.5C 301.364,641.893 303.864,647.56 308,652.5C 312.326,666.352 312.66,680.352 309,694.5C 308.333,698.167 308.333,701.833 309,705.5C 311.92,718.264 315.254,730.93 319,743.5C 319.667,748.5 319.667,753.5 319,758.5C 317.823,764.873 316.49,771.206 315,777.5C 314.333,784.167 314.333,790.833 315,797.5C 319.082,813.076 322.748,828.743 326,844.5C 326.667,851.5 326.667,858.5 326,865.5C 322.067,876.833 320.067,888.5 320,900.5C 319.148,904.927 317.982,909.261 316.5,913.5C 237.584,915.523 158.918,912.023 80.5,903C 75.3451,902.346 72.1784,899.513 71,894.5C 63.8951,788.91 58.3951,683.244 54.5,577.5 Z"/></g>
<g><path style="opacity:1" fill="#fefefe" d="M 81.5,912.5 C 156.927,920.572 232.594,924.738 308.5,925C 306.947,927.655 305.78,930.488 305,933.5C 304.716,940.847 304.716,948.181 305,955.5C 302.831,959.838 300.664,964.172 298.5,968.5C 301.821,975.294 304.654,982.294 307,989.5C 305.789,999.481 303.122,1009.15 299,1018.5C 294.217,1027.73 289.717,1037.07 285.5,1046.5C 286.906,1052.65 289.406,1058.31 293,1063.5C 293.167,1065 293.333,1066.5 293.5,1068C 292.253,1074.73 290.42,1081.23 288,1087.5C 288.123,1096.86 288.456,1106.19 289,1115.5C 286.265,1120.97 284.099,1126.63 282.5,1132.5C 284.949,1137.9 287.282,1143.4 289.5,1149C 286.809,1155.57 285.476,1162.41 285.5,1169.5C 227.083,1170.7 169.083,1166.53 111.5,1157C 102.889,1155.39 98.0553,1150.22 97,1141.5C 92.3304,1065.13 87.1638,988.799 81.5,912.5 Z"/></g>
<g><path style="opacity:1" fill="#aeaeae" d="M 96.5,1163.5 C 159.266,1175.27 222.6,1180.6 286.5,1179.5C 286.5,1183.5 286.5,1187.5 286.5,1191.5C 233.605,1192.77 180.938,1189.93 128.5,1183C 117.852,1182.17 108.518,1178.34 100.5,1171.5C 98.6071,1169.05 97.2737,1166.38 96.5,1163.5 Z"/></g>
<g><path style="opacity:0.029" fill="#a0a0a0" d="M 99.5,1182.5 C 102.004,1183.58 104.337,1184.92 106.5,1186.5C 103.386,1186.45 101.052,1185.11 99.5,1182.5 Z"/></g>
</svg>
